<?xml version="1.0" standalone="no"?>
<!DOCTYPE svg PUBLIC "-//W3C//DTD SVG 20010904//EN"
 "http://www.w3.org/TR/2001/REC-SVG-20010904/DTD/svg10.dtd">
<svg version="1.0" xmlns="http://www.w3.org/2000/svg"
 width="688.000000pt" height="464.000000pt" viewBox="0 0 688.000000 464.000000"
 preserveAspectRatio="xMidYMid meet">
<metadata>
Created by potrace 1.16, written by Peter Selinger 2001-2019
</metadata>
<g transform="translate(0.000000,464.000000) scale(0.100000,-0.100000)"
fill="#3ECFA5" stroke="none">
<path d="M0 2561 l0 -2080 23 -3 c48 -7 288 13 392 33 234 44 511 162 680 289
160 121 315 292 426 470 80 128 196 381 265 574 l14 38 -15 -6 c-8 -3 -22 -9
-30 -12 l-14 -6 8 30 c5 16 14 39 20 51 7 11 9 21 6 21 -3 0 -52 -22 -109 -49
l-103 -50 -67 -65 c-37 -36 -65 -59 -62 -51 l5 15 -12 0 c-7 0 -39 -27 -72
-60 -32 -33 -60 -58 -62 -56 -4 4 62 261 80 312 35 95 120 244 180 311 93 106
119 130 215 206 l105 82 -31 6 c-74 15 -103 59 -82 123 25 76 147 238 312 414
43 45 84 92 92 105 36 57 26 240 -19 347 -14 33 -31 88 -38 122 l-12 62 -45 8
c-102 18 -150 32 -242 76 -54 25 -98 48 -98 52 0 3 23 14 50 24 63 23 138 71
271 175 57 45 132 96 167 113 l62 31 108 -6 c120 -8 308 -39 344 -58 34 -18
152 -108 376 -287 57 -45 120 -91 140 -101 71 -36 234 -82 380 -106 199 -34
277 -53 340 -82 l52 -24 0 -17 c0 -8 -21 -35 -46 -58 l-46 -43 -151 -75 c-84
-41 -187 -87 -229 -102 -43 -15 -78 -28 -78 -30 0 -2 20 -34 43 -71 24 -37 56
-89 71 -115 l27 -47 -22 -12 c-12 -6 -51 -21 -87 -33 l-65 -22 30 -22 c40 -28
94 -111 122 -186 l22 -59 -23 16 c-13 9 -31 22 -41 28 l-18 10 17 -33 c9 -18
51 -76 92 -128 l75 -95 38 -80 c22 -44 49 -116 60 -160 l22 -80 0 -135 c1 -74
-5 -162 -11 -195 -6 -33 -16 -119 -22 -192 l-9 -132 -30 -123 c-16 -68 -34
-135 -40 -149 -5 -15 -8 -29 -5 -32 2 -2 30 2 62 10 l57 13 109 -6 108 -7 35
-30 35 -31 6 10 c4 5 34 32 67 59 33 28 66 56 73 63 17 16 296 241 331 267 84
62 343 274 441 361 262 232 358 342 396 457 l10 29 54 19 c185 66 450 119 450
91 0 -21 -46 -146 -87 -240 l-46 -103 -9 13 -10 13 5 -17 6 -16 -35 -65 -34
-65 -28 -10 c-15 -5 -56 -20 -92 -32 -147 -51 -300 -138 -544 -310 -231 -163
-809 -623 -850 -677 l-19 -25 11 -19 c7 -10 12 -35 12 -55 l0 -37 -25 -33 -25
-33 -34 -7 -34 -6 -28 -29 c-15 -16 -34 -29 -41 -29 -8 0 -31 -11 -51 -25 -20
-14 -44 -25 -53 -25 -9 0 -32 -14 -50 -31 l-33 -31 -55 4 -56 3 0 -43 0 -42
13 5 13 5 -6 -10 c-3 -6 1 -20 9 -32 20 -28 20 -48 1 -48 l-15 0 5 22 6 23
-33 31 -34 32 -29 -25 -30 -25 13 -5 c19 -7 14 -21 -18 -50 l-30 -26 0 -21 c1
-24 22 -56 37 -56 6 0 22 10 37 21 l27 21 6 -21 5 -21 27 -6 c52 -12 59 -15
65 -31 4 -9 4 -18 1 -21 -4 -5 -103 14 -132 25 l-13 5 0 -16 0 -16 -143 0
-144 0 4 67 c9 174 62 461 122 668 l29 100 -11 7 c-27 16 -416 68 -513 68 -88
0 -174 -18 -249 -51 -59 -26 -177 -105 -223 -149 -63 -61 -31 -13 37 55 39 38
68 71 66 73 -5 5 -84 -37 -133 -70 -24 -17 -46 -27 -49 -24 -10 9 28 46 40 39
l10 -6 -7 11 -6 10 37 30 c21 16 62 41 91 56 l53 27 107 17 107 18 -75 28
c-92 34 -171 82 -229 138 -58 57 -85 100 -110 175 -19 57 -54 243 -48 250 2 1
11 -23 21 -55 46 -146 150 -293 258 -364 52 -34 145 -75 152 -67 4 4 -16 89
-34 145 -6 17 -12 40 -14 50 -19 89 -95 331 -119 379 l-31 60 -76 76 -75 75
-50 24 -50 24 -61 4 -61 4 -59 -17 c-32 -9 -84 -30 -115 -45 l-57 -29 -29 -38
c-47 -61 -56 -79 -143 -273 -164 -368 -267 -556 -414 -753 -163 -220 -344
-397 -546 -536 -97 -67 -318 -186 -327 -177 -4 3 -2 6 4 6 16 0 177 108 253
169 72 58 183 162 178 166 -2 2 -43 -16 -91 -40 -245 -120 -564 -195 -829
-195 l-98 0 0 -200 0 -200 3440 0 3440 0 0 2320 0 2320 -3440 0 -3440 0 0
-2079z m2065 -800 c-77 -365 -52 -762 63 -1004 57 -120 90 -166 270 -369 l103
-118 -73 0 -73 0 -38 38 c-113 112 -288 386 -338 529 -61 178 -63 446 -5 696
17 72 97 309 103 303 2 -2 -3 -35 -12 -75z m-326 -698 c-58 -97 -97 -155 -160
-240 l-69 -92 6 -15 c3 -8 1 -17 -5 -21 l-11 -6 7 18 6 18 -10 -10 c-6 -5 -36
-41 -68 -80 -32 -38 -67 -81 -79 -94 l-21 -24 15 7 c29 14 -135 -137 -212
-195 l-77 -59 -52 0 -53 0 76 52 c129 89 232 175 320 266 101 106 269 313 345
428 57 86 83 114 42 47z m1382 -401 c-11 -21 -37 -57 -60 -79 l-40 -42 -72
-22 -72 -22 -71 7 c-39 3 -91 12 -116 20 l-45 13 125 5 125 4 76 36 c41 21 95
55 120 77 24 22 45 40 47 41 1 0 -6 -17 -17 -38z M2233 4131 c-24 -11 -99 -60
-167 -109 -69 -49 -150 -102 -180 -118 -31 -16 -56 -32 -56 -36 0 -13 84 -9
138 7 29 9 96 36 150 60 82 37 195 75 224 75 4 0 -10 -28 -32 -62 -37 -56 -67
-134 -57 -144 2 -2 24 7 48 20 55 31 183 82 229 91 l35 7 -60 -44 c-61 -45
-138 -124 -188 -189 l-26 -35 11 -37 c6 -20 14 -37 17 -37 3 0 47 28 96 61
151 102 297 165 510 221 l50 14 -100 77 c-55 43 -123 93 -151 113 l-51 35
-119 19 c-65 11 -155 22 -199 25 l-80 6 -42 -20z M2975 3808 c-133 -20 -321
-92 -457 -174 -72 -44 -226 -158 -250 -186 -32 -37 -19 -37 34 -2 68 44 83 44
30 -2 -52 -44 -56 -66 -4 -26 20 16 66 48 102 72 l65 44 -67 -69 c-38 -38 -66
-70 -65 -72 2 -1 55 32 118 74 194 130 443 235 609 258 l55 8 -44 38 c-53 45
-61 47 -126 37z M3180 3683 c-299 -45 -575 -180 -842 -410 -169 -145 -509
-505 -493 -522 3 -2 20 9 38 25 34 32 132 110 233 186 117 89 311 210 444 277
375 190 740 281 1192 298 93 3 167 8 165 9 -5 6 -149 32 -300 54 -75 12 -194
37 -263 55 -69 19 -131 34 -138 34 -6 -1 -22 -3 -36 -6z M3281 3403 c4 -54 -1
-73 -24 -88 l-24 -15 -119 -3 -119 -2 -53 -26 c-28 -14 -52 -23 -52 -20 0 3 9
21 20 39 l20 32 -18 0 c-10 0 -26 -6 -36 -13 l-19 -14 2 -103 2 -104 21 -29
c11 -16 50 -48 87 -71 36 -24 72 -51 80 -60 l14 -17 -44 17 c-24 10 -54 24
-67 32 -12 8 -25 13 -27 10 -2 -2 7 -32 21 -67 l26 -63 5 -72 6 -73 -12 -69
c-7 -38 -27 -116 -46 -174 -18 -58 -39 -140 -46 -183 l-12 -78 6 -112 6 -112
21 -80 c47 -175 71 -222 264 -495 100 -141 113 -157 123 -147 9 9 -51 132
-118 244 -66 109 -106 200 -130 292 l-20 76 -4 130 c-2 72 -1 112 1 90 26
-240 82 -392 227 -618 29 -45 73 -117 97 -159 l43 -77 25 -6 c13 -3 27 -3 30
0 11 10 -40 149 -114 311 -93 204 -110 248 -140 359 l-25 90 -4 125 -4 125 9
-73 c23 -183 52 -268 200 -587 53 -115 107 -241 120 -280 26 -81 35 -95 61
-95 l19 0 0 30 c0 17 -7 66 -16 108 -13 69 -42 156 -174 537 -39 113 -54 183
-64 295 l-5 65 23 -100 c13 -55 47 -161 76 -235 102 -259 122 -315 141 -380
23 -78 49 -237 49 -302 0 -46 13 -69 30 -52 5 5 14 62 21 126 l12 117 -12 106
c-15 133 -42 228 -135 469 -72 186 -107 306 -105 363 l0 28 19 -71 c20 -76 44
-141 138 -364 73 -173 110 -297 118 -394 4 -39 10 -78 14 -86 l8 -14 9 49 c4
28 8 102 8 165 l-1 115 -17 85 c-22 104 -65 227 -150 430 -96 232 -90 228 37
-25 l116 -230 22 -82 c13 -46 27 -83 32 -83 l9 0 -6 138 -5 137 -22 75 c-30
107 -79 199 -170 324 -83 112 -114 171 -126 231 l-6 35 -17 0 c-9 0 -26 -7
-38 -15 l-22 -16 -24 -77 c-14 -42 -40 -147 -58 -232 l-34 -155 -3 73 c-2 39
-7 72 -11 72 -5 0 -24 -17 -42 -38 -19 -21 -65 -63 -103 -92 l-70 -55 27 45
c35 60 57 150 57 230 -1 61 -19 189 -35 235 l-6 20 15 -25 c8 -14 23 -47 32
-75 l17 -50 18 81 c9 44 32 112 50 150 35 73 36 77 38 110 0 12 9 32 19 44
l18 23 -4 -37 -4 -36 58 0 c69 0 190 17 211 28 l14 9 -106 149 -107 149 -2 55
-1 55 -18 3 -19 4 3 -29z m-87 -140 c2 -10 7 -37 11 -59 l6 -41 -26 -29 -25
-29 11 28 c15 34 9 40 -26 27 l-28 -11 -51 11 c-28 6 -58 15 -66 20 l-15 9 20
16 c33 26 138 75 162 75 l22 0 5 -17z M3066 3223 l-50 -25 25 -14 c44 -24 139
-14 99 11 -5 3 -10 15 -10 25 0 29 -11 30 -64 3z M2776 3203 c-48 -98 -154
-257 -201 -303 l-37 -35 48 80 c53 91 118 226 128 268 l7 29 -52 -29 -51 -28
-50 -95 c-151 -287 -244 -436 -322 -519 -86 -90 -155 -140 -297 -217 -68 -37
-164 -94 -212 -127 l-88 -60 -65 -71 -65 -71 -35 -74 c-19 -40 -33 -75 -30
-78 3 -3 31 18 63 47 54 50 148 115 318 221 39 24 92 60 119 80 l50 37 14 -6
15 -5 -6 10 -7 11 85 51 c176 108 266 186 399 346 198 237 282 375 311 513 27
130 16 136 -39 25z M2476 3115 c-21 -12 -52 -36 -70 -52 l-31 -30 -78 -152
-78 -151 -49 -53 -49 -52 39 75 c45 88 83 186 78 202 -5 15 -82 -84 -126 -162
-42 -76 -106 -162 -154 -206 -18 -17 -81 -67 -139 -112 -129 -99 -287 -262
-254 -262 3 0 31 20 62 44 79 59 121 85 259 157 143 75 209 118 291 194 l63
56 59 89 c49 73 231 416 231 434 0 10 -13 5 -54 -19z M2783 2934 l-42 -75 -47
-147 -47 -147 -4 -91 -5 -91 16 -58 c10 -31 19 -56 20 -54 2 2 7 31 10 64 10
93 31 154 100 294 l64 129 12 69 13 69 -17 57 c-9 31 -20 57 -24 57 -4 -1 -26
-35 -49 -76z M2890 2878 c0 -79 -17 -136 -75 -263 -25 -54 -55 -128 -67 -164
l-22 -66 1 -100 0 -100 17 -64 c18 -66 87 -214 106 -226 13 -8 13 -4 -6 69
l-16 61 4 125 4 125 59 170 58 170 1 95 1 95 -19 57 c-10 32 -25 63 -32 69
l-14 11 0 -64z M3274 2916 c-59 -26 -79 -78 -109 -278 -14 -97 -30 -162 -50
-210 l-7 -18 9 0 c4 0 32 35 60 78 52 77 88 157 117 254 19 68 36 89 77 103
42 15 45 25 15 58 l-25 27 -28 0 c-15 -1 -42 -7 -59 -14z M2609 2708 c-37 -54
-178 -196 -255 -257 -83 -67 -308 -204 -338 -206 l-21 -2 0 -14 c0 -8 -8 -13
-17 -13 -10 1 -16 -2 -15 -7 2 -8 -118 -119 -159 -146 -46 -30 -16 -24 57 11
117 56 377 215 470 288 127 99 248 237 292 332 23 49 16 57 -14 14z M5809
2426 c-3 -3 -36 -10 -74 -16 -39 -6 -104 -22 -146 -36 l-76 -25 -26 -27 c-14
-15 -29 -39 -32 -54 l-7 -26 24 -4 23 -3 3 -22 3 -23 -46 -27 c-83 -49 -197
-137 -336 -259 -129 -113 -193 -167 -355 -300 -117 -96 -156 -128 -189 -154
-50 -39 -212 -170 -295 -239 -141 -116 -170 -142 -170 -150 0 -5 9 -20 21 -35
l21 -26 57 52 c31 29 92 81 135 116 l78 62 10 -6 11 -7 -6 10 -7 11 163 129
c500 398 780 582 1006 659 53 18 99 39 102 46 3 7 14 27 23 43 30 53 116 235
116 245 0 6 3 10 8 10 4 0 8 14 9 30 l2 30 -23 0 c-12 0 -25 -2 -27 -4z M2382
2312 l-72 -57 52 -8 c29 -4 85 -22 123 -41 l70 -35 57 -55 c31 -31 59 -56 61
-56 2 0 -8 26 -24 58 -15 32 -35 85 -44 118 -10 32 -25 68 -34 78 -16 18 -86
55 -106 56 -5 0 -43 -26 -83 -58z M2864 1635 c3 -11 19 -85 36 -165 17 -80 33
-152 36 -161 l5 -16 52 -7 c28 -4 63 -10 76 -13 l24 -6 -7 39 c-4 21 -15 52
-23 69 -18 34 -139 205 -178 250 l-26 30 5 -20z M3693 1107 c-50 -18 -94 -35
-98 -38 -3 -4 -16 -68 -29 -143 l-23 -137 21 -14 c12 -8 33 -17 49 -20 15 -4
30 -11 33 -16 3 -5 18 -9 33 -9 16 0 42 -3 59 -6 l30 -6 11 -25 11 -24 23 3
22 3 -3 43 -2 42 10 0 c6 0 16 -11 22 -25 l11 -25 17 0 c10 0 23 6 29 14 l12
14 -11 41 -11 41 10 17 9 17 24 -49 23 -50 19 0 c10 0 24 8 30 17 l10 17 -13
43 c-12 40 -23 114 -16 106 2 -2 24 -31 49 -66 l47 -63 12 7 c7 4 19 13 29 21
l16 14 -8 27 c-4 15 -27 63 -51 106 l-44 80 -65 16 c-65 17 -110 36 -110 47 0
3 27 3 59 1 33 -2 58 -1 55 4 -3 4 -51 8 -107 7 l-102 -1 -92 -31z M3603 665
l-21 -15 -4 -55 c-1 -30 -1 -55 2 -55 9 0 104 81 117 100 l13 19 -19 11 c-28
14 -63 13 -88 -5z"/>
</g>
</svg>
